<?xml version="1.0" encoding="iso-8859-1"?>
<!-- Uploaded to: SVG Repo, www.svgrepo.com, Generator: SVG Repo Mixer Tools -->
<svg fill="#000000" height="800px" width="800px" version="1.1" id="Layer_1" xmlns="http://www.w3.org/2000/svg" xmlns:xlink="http://www.w3.org/1999/xlink" 
	 viewBox="0 0 511.995 511.995" xml:space="preserve">
<g>
	<g>
		<g>
			<path d="M191.997,85.328h-42.667c-5.888,0-10.667,4.779-10.667,10.667v42.667c0,5.888,4.779,10.667,10.667,10.667h42.667
				c5.888,0,10.667-4.779,10.667-10.667V95.995C202.664,90.107,197.885,85.328,191.997,85.328z M181.331,127.995h-21.333v-21.333
				h21.333V127.995z"/>
			<path d="M191.997,255.995h-42.667c-5.888,0-10.667,4.779-10.667,10.667v42.667c0,5.888,4.779,10.667,10.667,10.667h42.667
				c5.888,0,10.667-4.779,10.667-10.667v-42.667C202.664,260.773,197.885,255.995,191.997,255.995z M181.331,298.661h-21.333
				v-21.333h21.333V298.661z"/>
			<path d="M191.997,170.661h-42.667c-5.888,0-10.667,4.779-10.667,10.667v42.667c0,5.888,4.779,10.667,10.667,10.667h42.667
				c5.888,0,10.667-4.779,10.667-10.667v-42.667C202.664,175.44,197.885,170.661,191.997,170.661z M181.331,213.328h-21.333v-21.333
				h21.333V213.328z"/>
			<path d="M191.997,341.328h-42.667c-5.888,0-10.667,4.779-10.667,10.667v42.667c0,5.888,4.779,10.667,10.667,10.667h42.667
				c5.888,0,10.667-4.779,10.667-10.667v-42.667C202.664,346.107,197.885,341.328,191.997,341.328z M181.331,383.995h-21.333
				v-21.333h21.333V383.995z"/>
			<path d="M277.331,341.328h-42.667c-5.888,0-10.667,4.779-10.667,10.667v42.667c0,5.888,4.779,10.667,10.667,10.667h42.667
				c5.888,0,10.667-4.779,10.667-10.667v-42.667C287.997,346.107,283.219,341.328,277.331,341.328z M266.664,383.995h-21.333
				v-21.333h21.333V383.995z"/>
			<path d="M223.997,95.995v42.667c0,5.888,4.779,10.667,10.667,10.667h42.667c5.888,0,10.667-4.779,10.667-10.667V95.995
				c0-5.888-4.779-10.667-10.667-10.667h-42.667C228.776,85.328,223.997,90.107,223.997,95.995z M245.331,106.661h21.333v21.333
				h-21.333V106.661z"/>
			<path d="M319.997,319.995h42.667c5.888,0,10.667-4.779,10.667-10.667v-42.667c0-5.888-4.779-10.667-10.667-10.667h-42.667
				c-5.888,0-10.667,4.779-10.667,10.667v42.667C309.331,315.216,314.109,319.995,319.997,319.995z M330.664,277.328h21.333v21.333
				h-21.333V277.328z"/>
			<path d="M490.664,85.328h-74.667v-32c0-4.757-3.157-8.939-7.744-10.261L258.92,0.4c-1.899-0.533-3.925-0.533-5.845,0
				L103.741,43.067c-4.587,1.323-7.744,5.504-7.744,10.261v32H21.331c-5.888,0-10.667,4.779-10.667,10.667v405.333
				c0,5.888,4.779,10.667,10.667,10.667h469.333c5.888,0,10.667-4.779,10.667-10.667V95.995
				C501.331,90.107,496.552,85.328,490.664,85.328z M95.997,127.995h-32c-5.888,0-10.667,4.779-10.667,10.667
				s4.779,10.667,10.667,10.667h32v42.667h-32c-5.888,0-10.667,4.779-10.667,10.667s4.779,10.667,10.667,10.667h32v42.667h-32
				c-5.888,0-10.667,4.779-10.667,10.667s4.779,10.667,10.667,10.667h32v42.667h-32c-5.888,0-10.667,4.779-10.667,10.667
				s4.779,10.667,10.667,10.667h32v42.667h-32c-5.888,0-10.667,4.779-10.667,10.667s4.779,10.667,10.667,10.667h32v42.667h-32
				c-5.888,0-10.667,4.779-10.667,10.667s4.779,10.667,10.667,10.667h32v21.333h-64v-384h64V127.995z M309.331,490.661H202.664
				v-42.667h106.667V490.661z M394.664,490.661h-64v-53.333c0-5.888-4.779-10.667-10.667-10.667h-128
				c-5.888,0-10.667,4.779-10.667,10.667v53.333h-64V61.371l138.667-39.616l138.667,39.616V490.661z M479.997,490.661h-64v-21.333
				h32c5.888,0,10.667-4.779,10.667-10.667s-4.779-10.667-10.667-10.667h-32v-42.667h32c5.888,0,10.667-4.779,10.667-10.667
				s-4.779-10.667-10.667-10.667h-32v-42.667h32c5.888,0,10.667-4.779,10.667-10.667s-4.779-10.667-10.667-10.667h-32v-42.667h32
				c5.888,0,10.667-4.779,10.667-10.667s-4.779-10.667-10.667-10.667h-32v-42.667h32c5.888,0,10.667-4.779,10.667-10.667
				s-4.779-10.667-10.667-10.667h-32v-42.667h32c5.888,0,10.667-4.779,10.667-10.667s-4.779-10.667-10.667-10.667h-32v-21.333h64
				V490.661z"/>
			<path d="M319.997,405.328h42.667c5.888,0,10.667-4.779,10.667-10.667v-42.667c0-5.888-4.779-10.667-10.667-10.667h-42.667
				c-5.888,0-10.667,4.779-10.667,10.667v42.667C309.331,400.549,314.109,405.328,319.997,405.328z M330.664,362.661h21.333v21.333
				h-21.333V362.661z"/>
			<path d="M277.331,255.995h-42.667c-5.888,0-10.667,4.779-10.667,10.667v42.667c0,5.888,4.779,10.667,10.667,10.667h42.667
				c5.888,0,10.667-4.779,10.667-10.667v-42.667C287.997,260.773,283.219,255.995,277.331,255.995z M266.664,298.661h-21.333
				v-21.333h21.333V298.661z"/>
			<path d="M277.331,170.661h-42.667c-5.888,0-10.667,4.779-10.667,10.667v42.667c0,5.888,4.779,10.667,10.667,10.667h42.667
				c5.888,0,10.667-4.779,10.667-10.667v-42.667C287.997,175.44,283.219,170.661,277.331,170.661z M266.664,213.328h-21.333v-21.333
				h21.333V213.328z"/>
			<path d="M319.997,234.661h42.667c5.888,0,10.667-4.779,10.667-10.667v-42.667c0-5.888-4.779-10.667-10.667-10.667h-42.667
				c-5.888,0-10.667,4.779-10.667,10.667v42.667C309.331,229.883,314.109,234.661,319.997,234.661z M330.664,191.995h21.333v21.333
				h-21.333V191.995z"/>
			<path d="M319.997,149.328h42.667c5.888,0,10.667-4.779,10.667-10.667V95.995c0-5.888-4.779-10.667-10.667-10.667h-42.667
				c-5.888,0-10.667,4.779-10.667,10.667v42.667C309.331,144.549,314.109,149.328,319.997,149.328z M330.664,106.661h21.333v21.333
				h-21.333V106.661z"/>
		</g>
	</g>
</g>
</svg>