<svg width="12" height="12" viewBox="0 0 12 12" fill="none" xmlns="http://www.w3.org/2000/svg">
    <path d="M9 5C9 3.93913 8.57857 2.92172 7.82843 2.17157C7.07828 1.42143 6.06087 1 5 1C3.93913 1 2.92172 1.42143 2.17157 2.17157C1.42143 2.92172 1 3.93913 1 5C1 7.4965 3.7695 10.0965 4.6995 10.8995C4.78618 10.9645 4.89164 10.9996 5 10.9995M9 11V9.5M7.5 11C7.36739 11 7.24021 10.9473 7.14645 10.8536C7.05268 10.7598 7 10.6326 7 10.5V8.5C6.99999 8.4177 7.02029 8.33668 7.0591 8.26411C7.09792 8.19154 7.15404 8.12967 7.2225 8.084L8.7225 7.084C8.80466 7.02918 8.90123 6.99993 9 6.99993C9.09877 6.99993 9.19534 7.02918 9.2775 7.084L10.7775 8.084C10.846 8.12967 10.9021 8.19154 10.9409 8.26411C10.9797 8.33668 11 8.4177 11 8.5V10.5C11 10.6326 10.9473 10.7598 10.8536 10.8536C10.7598 10.9473 10.6326 11 10.5 11H7.5ZM6.5 5C6.5 5.82843 5.82843 6.5 5 6.5C4.17157 6.5 3.5 5.82843 3.5 5C3.5 4.17157 4.17157 3.5 5 3.5C5.82843 3.5 6.5 4.17157 6.5 5Z" stroke="black" stroke-width="2" stroke-linecap="round" stroke-linejoin="round"/>
</svg>
