<svg width="12" height="12" viewBox="0 0 12 12" fill="none" xmlns="http://www.w3.org/2000/svg">
    <path d="M5.75 7.5H3.5C2.96957 7.5 2.46086 7.71071 2.08579 8.08579C1.71071 8.46086 1.5 8.96957 1.5 9.5V10.5M10.689 8.313C10.8882 8.11382 11.0001 7.84368 11.0001 7.562C11.0001 7.28032 10.8882 7.01018 10.689 6.811C10.4898 6.61182 10.2197 6.49993 9.938 6.49993C9.65632 6.49993 9.38618 6.61182 9.187 6.811L7.182 8.817C7.06312 8.93581 6.97611 9.08267 6.929 9.244L6.5105 10.679C6.49795 10.722 6.4972 10.7676 6.50832 10.811C6.51944 10.8545 6.54203 10.8941 6.57372 10.9258C6.60541 10.9575 6.64504 10.9801 6.68845 10.9912C6.73187 11.0023 6.77748 11.0015 6.8205 10.989L8.2555 10.5705C8.41683 10.5234 8.56369 10.4364 8.6825 10.3175L10.689 8.313ZM7 3.5C7 4.60457 6.10457 5.5 5 5.5C3.89543 5.5 3 4.60457 3 3.5C3 2.39543 3.89543 1.5 5 1.5C6.10457 1.5 7 2.39543 7 3.5Z" stroke="black" stroke-width="2" stroke-linecap="round" stroke-linejoin="round"/>
</svg>
