<svg width="19" height="20" viewBox="0 0 19 20" fill="none" xmlns="http://www.w3.org/2000/svg">
<path d="M14.0833 5.4165H14.0916M5.33329 1.6665H13.6666C15.9678 1.6665 17.8333 3.53198 17.8333 5.83317V14.1665C17.8333 16.4677 15.9678 18.3332 13.6666 18.3332H5.33329C3.03211 18.3332 1.16663 16.4677 1.16663 14.1665V5.83317C1.16663 3.53198 3.03211 1.6665 5.33329 1.6665ZM12.8333 9.47484C12.9361 10.1684 12.8177 10.8767 12.4948 11.499C12.1718 12.1213 11.6609 12.626 11.0346 12.9412C10.4084 13.2564 9.69866 13.3662 9.00645 13.2548C8.31423 13.1434 7.67476 12.8166 7.17899 12.3208C6.68322 11.825 6.3564 11.1856 6.24502 10.4933C6.13363 9.80113 6.24335 9.09142 6.55856 8.46515C6.87378 7.83888 7.37845 7.32795 8.00078 7.00504C8.62311 6.68212 9.33142 6.56366 10.025 6.6665C10.7324 6.77141 11.3873 7.10106 11.893 7.60676C12.3987 8.11246 12.7284 8.7674 12.8333 9.47484Z" stroke="#2C2C2C" stroke-width="2" stroke-linecap="round" stroke-linejoin="round"/>
</svg>
