<svg width="21" height="18" viewBox="0 0 21 18" fill="none" xmlns="http://www.w3.org/2000/svg">
<path d="M19.6667 1.50008C18.8687 2.06298 17.9851 2.4935 17.05 2.77508C16.5482 2.198 15.8812 1.78899 15.1392 1.60335C14.3973 1.41771 13.6163 1.46441 12.9018 1.73712C12.1873 2.00984 11.5737 2.49541 11.1442 3.12818C10.7146 3.76094 10.4898 4.51036 10.5 5.27508V6.10841C9.03557 6.14639 7.58444 5.82159 6.27588 5.16295C4.96733 4.50431 3.84197 3.53228 3.00004 2.33341C3.00004 2.33341 -0.333292 9.83341 7.16671 13.1667C5.45048 14.3317 3.406 14.9159 1.33337 14.8334C8.83337 19.0001 18 14.8334 18 5.25008C17.9993 5.01796 17.977 4.78641 17.9334 4.55841C18.7839 3.71966 19.3841 2.66067 19.6667 1.50008Z" stroke="#2C2C2C" stroke-width="2" stroke-linecap="round" stroke-linejoin="round"/>
</svg>
